<svg width="16" height="17" viewBox="0 0 16 17" fill="none" xmlns="http://www.w3.org/2000/svg">
<mask id="mask0_2927_130833" style="mask-type:alpha" maskUnits="userSpaceOnUse" x="0" y="0" width="16" height="17">
<circle cx="2.66667" cy="2.66667" r="2.66667" transform="matrix(-1 0 0 1 10.667 2.5)" stroke="white"/>
<path d="M3.3335 11.7911C3.3335 11.2175 3.69407 10.7059 4.23422 10.5129V10.5129C6.66952 9.6432 9.3308 9.6432 11.7661 10.5129V10.5129C12.3063 10.7059 12.6668 11.2175 12.6668 11.7911V12.6681C12.6668 13.4597 11.9657 14.0678 11.182 13.9559L10.5457 13.865C8.85726 13.6237 7.14306 13.6237 5.45458 13.865L4.8183 13.9559C4.03463 14.0678 3.3335 13.4597 3.3335 12.6681V11.7911Z" stroke="white"/>
</mask>
<g mask="url(#mask0_2927_130833)">
<rect y="0.5" width="16" height="16" fill="#202020"/>
</g>
</svg>
